<?xml version="1.0" encoding="UTF-8"?>
<svg width="34px" height="34px" viewBox="0 0 34 34" version="1.1" xmlns="http://www.w3.org/2000/svg" xmlns:xlink="http://www.w3.org/1999/xlink">
    <!-- Generator: Sketch 46.2 (44496) - http://www.bohemiancoding.com/sketch -->
    <title>icon-friend</title>
    <desc>Created with Sketch.</desc>
    <defs></defs>
    <g id="Symbols" stroke="none" stroke-width="1" fill="none" fill-rule="evenodd">
        <g id="icon-friend">
            <g id="Group-4">
                <g transform="translate(6.000000, 4.000000)">
                    <circle id="Oval-2" stroke="#222222" stroke-width="2" cx="11" cy="6" r="6"></circle>
                    <path d="M16.7000008,14.2773213 C15.1255598,13.4611191 13.3373825,13 11.441505,13 C5.12253628,13 0,18.1225363 0,24.441505" id="Oval-2" stroke="#222222" stroke-width="2" stroke-linecap="round"></path>
                    <path d="M15,20 L22,20 L22,20 C22.5522847,20 23,20.4477153 23,21 L23,21 L23,21 C23,21.5522847 22.5522847,22 22,22 L15,22 L15,22 C14.4477153,22 14,21.5522847 14,21 L14,21 L14,21 C14,20.4477153 14.4477153,20 15,20 Z" id="Rectangle-2" fill="#222222"></path>
                    <path d="M15,20 L22,20 L22,20 C22.5522847,20 23,20.4477153 23,21 L23,21 L23,21 C23,21.5522847 22.5522847,22 22,22 L15,22 L15,22 C14.4477153,22 14,21.5522847 14,21 L14,21 L14,21 C14,20.4477153 14.4477153,20 15,20 Z" id="Rectangle-2-Copy" fill="#222222" transform="translate(18.500000, 21.000000) rotate(-90.000000) translate(-18.500000, -21.000000) "></path>
                </g>
            </g>
        </g>
    </g>
</svg>