<?xml version="1.0" encoding="UTF-8"?>
<svg width="180px" height="60px" viewBox="0 0 180 60" version="1.1" xmlns="http://www.w3.org/2000/svg" xmlns:xlink="http://www.w3.org/1999/xlink">
    <!-- Generator: Sketch 50.2 (55047) - http://www.bohemiancoding.com/sketch -->
    <title>Artboard</title>
    <desc>Created with Sketch.</desc>
    <defs></defs>
    <g id="Artboard" stroke="none" stroke-width="1" fill="none" fill-rule="evenodd">
        <g id="支付宝-(1)" transform="translate(40.000000, 15.000000)" fill-rule="nonzero">
            <path d="M7.33646629,16.4091095 C6.58136106,16.4844324 5.16414953,16.8180602 4.38936808,17.5032884 C2.06317145,19.5266014 3.45707209,23.2270924 8.15601724,23.2270924 C10.8865723,23.2270924 13.6171972,21.4799867 15.7608908,18.687154 C12.7189414,17.1983533 10.1332844,16.1328321 7.33646629,16.4091095 Z M24.8724101,18.9669348 C29.2223908,20.4234693 30.2083333,20.5006139 30.2083333,20.5006139 L30.2083333,4.84308677 C30.2083333,2.16832381 28.0452726,0 25.3770019,0 L4.83133146,0 C2.16306077,0 3.4144913e-16,2.16832381 0,4.84308677 L0,25.3652466 C3.4144913e-16,28.0400095 2.16306077,30.2083333 4.83133146,30.2083333 L25.3716547,30.2083333 C28.0399254,30.2083333 30.2029862,28.0400095 30.2029862,25.3652466 L30.2029862,25.1661139 C30.2029862,25.1661139 22.3457817,21.8925459 18.3769534,19.9857907 C15.7161563,23.2576069 12.2823252,25.2450452 8.71429045,25.2450452 C2.68763782,25.2450452 0.640612744,19.9732486 3.49285973,16.5023697 C4.11557865,15.747214 5.17487883,15.0243244 6.81754551,14.6189471 C9.3870911,13.9875661 13.4776114,15.013569 17.3104887,16.2781528 C18.0242692,14.9577443 18.5947615,13.5644237 19.012184,12.1220808 L7.20226264,12.1220808 L7.20226264,10.9238513 L13.2861615,10.9238513 L13.2861615,8.77136826 L5.92463689,8.77136826 L5.92463689,7.58750261 L13.3004906,7.58750261 L13.3004906,4.52560954 C13.2984624,4.38689367 13.3531558,4.2533892 13.4518533,4.15613914 C13.5505507,4.05888908 13.6846523,4.00636728 13.8229761,4.01078633 L16.8005148,4.01078633 L16.8005148,7.58750261 L24.0940289,7.58750261 L24.0940289,8.7839104 L16.8005148,8.7839104 L16.8005148,10.9363934 L22.7555572,10.9363934 C22.2189499,13.1669991 21.3701297,15.3102539 20.2343459,17.302404 C22.0416217,17.9552958 23.6627949,18.5741346 24.8724101,18.9795119 L24.8724101,18.9669348 Z" id="Shape" fill="#25ABEE"></path>
            <path d="M86.4228215,4.1651692 L96.1329816,4.1651692 L96.1329816,6.10554166 L99.6009481,6.10554166 L99.6008811,3.80717464 C99.6002007,3.80242138 99.6002007,3.79759413 99.6008811,3.79284087 C99.6068934,3.28392888 99.2074391,2.86413708 98.7032794,2.84953919 L93.0890073,2.84953919 L93.0890073,1.04166667 L89.4596934,1.04166667 L89.4596934,2.84953919 L82.9549566,2.84953919 L82.9549566,6.10554166 L86.4228561,6.1055067 L86.4228215,4.1651692 Z M62.9298256,1.20814812 L59.375,9.69443712 L62.1014461,9.69443712 L62.1014461,19.7916667 L65.0850675,19.7916667 L65.0850675,6.39728625 L64.0048135,6.39728625 L66.2522824,1.20814812 L62.9298256,1.20814812 Z M98.9090751,15.6156811 C98.8394192,15.376442 98.6239783,15.2104782 98.3769166,15.2057354 L95.4855221,15.2057354 L96.322771,18.058959 L92.9258259,18.058959 L92.9258259,12.533327 L99.5920118,12.533327 L99.5920118,11.21948 L92.9258259,11.21948 L92.9258259,8.6186355 L99.5920118,8.6186355 L99.5920118,7.30300549 L82.9531897,7.30300549 L82.9531897,8.6186355 L89.6193756,8.6186355 L89.6193756,11.21948 L82.954922,11.21948 L82.954922,12.53511 L89.6211078,12.53511 L89.6211078,18.058959 L82.954922,18.058959 L82.954922,19.374589 L100,19.374589 L99.9857952,19.3298397 L100,19.3298397 L98.9090751,15.6156811 Z M70.5591976,8.16401038 C70.4455249,7.92535519 70.2078286,7.7721403 69.9454484,7.76839842 L67.3627128,7.76839842 L69.3742442,14.1604192 L72.4288547,14.1604192 L70.5591976,8.16401038 Z" id="Shape" fill="#394144"></path>
            <path d="M77.143862,1.30780148 L74.0046997,1.30780148 L74.0046997,4.57055154 L66.2698604,4.57055154 L66.2698604,5.88315775 L74.0046997,5.88315775 L74.0046997,17.6073207 C73.9827295,17.8737446 73.7666287,18.0832975 73.4982429,18.0984319 L71.9035301,18.0984319 L71.9035301,19.4574634 L75.971179,19.4574634 C76.6232435,19.4226569 77.1362445,18.8906193 77.1438269,18.2413006 L77.1438269,5.88137886 L78.4188956,5.88137886 L78.4188956,4.57055154 L77.1438269,4.57055154 L77.143862,1.30780148 Z M55.4928429,18.4645329 C53.0795595,17.611392 50.7613607,16.5126166 48.5751602,15.1857032 C51.1593911,13.2837635 53.4240131,10.7014187 54.3219488,7.24756084 L48.298589,7.24756084 L48.298589,5.10453029 L55.2881066,5.10453029 L55.2881066,3.76335732 L48.298589,3.76335732 L48.298589,1.04166667 L45.182752,1.04166667 C45.0160348,1.0444824 44.8572741,1.11305666 44.7414104,1.23229749 C44.6255467,1.35153833 44.5620753,1.51167355 44.5649652,1.6774603 L44.5649652,3.76335732 L37.6239221,3.76335732 L37.6239221,5.10093765 L44.5649652,5.10093765 L44.5649652,7.24396819 L38.7068467,7.24396819 L38.7068467,8.58161828 L50.380011,8.58161828 C50.380011,8.58161828 49.7334973,11.0924939 46.5332684,13.7909544 C43.6598741,11.6371808 42.7062383,9.91741973 42.7062383,9.91741973 L39.5706538,9.91741973 C40.8367432,12.0997252 42.6361923,13.8463091 44.5739446,15.2356863 C42.7942079,16.3857863 40.4847594,17.4947976 37.5,18.3823904 L37.5,19.9896633 C40.680723,19.3034032 43.7356571,18.1323376 46.5565937,16.5179468 C49.3461347,18.1069982 52.3578339,19.274628 55.4928429,19.9825129 L55.4928429,18.4645329 Z M40.9839906,22.4380687 L38.1105963,30.2083333 L39.5724427,30.2083333 L40.1112041,28.643928 L42.9845984,28.643928 L43.5054011,30.2083333 L44.9672475,30.2083333 L42.0938532,22.4380687 L40.9839906,22.4380687 Z M40.4631879,27.6634846 L41.5838187,24.4489387 L42.6613415,27.6634846 L40.4631879,27.6634846 Z M52.7900564,22.4380687 L51.385699,22.4380687 L51.385699,30.2083333 L56.1159963,30.2083333 L56.1159963,29.1511189 L52.7900564,29.1511189 L52.7900564,22.4380687 Z M63.0678427,22.4380687 L64.474024,22.4380687 L64.474024,30.2083333 L63.0678427,30.2083333 L63.0678427,22.4380687 Z M75.0031972,22.4380687 L71.9663506,22.4380687 L71.9663506,30.2083333 L73.3707431,30.2083333 L73.3707431,27.215241 L75.0031622,27.215241 C76.5189197,27.215241 77.57666,26.2312398 77.57666,24.8239691 C77.57666,23.4166984 76.5189197,22.4380687 75.0031622,22.4380687 L75.0031972,22.4380687 Z M74.9241719,26.1544339 L73.3707431,26.1544339 L73.3707431,23.4952832 L74.9241719,23.4952832 C75.703552,23.4952832 76.1705137,24.1739095 76.1705137,24.8293406 C76.1705137,25.4847717 75.7341029,26.1544339 74.9259607,26.1544339 L74.9241719,26.1544339 Z M85.6150086,22.4380687 L82.7416143,30.2083333 L84.2034256,30.2083333 L84.742187,28.643928 L87.6155813,28.643928 L88.136384,30.2083333 L89.5982304,30.2083333 L86.7248361,22.4380687 L85.6150086,22.4380687 Z M85.0888042,27.6634846 L86.209435,24.4489387 L87.2869579,27.6634846 L85.0888042,27.6634846 Z M97.438998,22.4380687 L95.9053519,25.7490579 L94.3483454,22.4380687 L92.8307989,22.4380687 L95.1959476,27.0170176 L95.1959476,30.2083333 L96.5913608,30.2083333 L96.5913608,27.0170176 L96.6003401,26.999159 L98.9583333,22.4380687 L97.438998,22.4380687 Z" id="Shape" fill="#394144"></path>
        </g>
    </g>
</svg>