<?xml version="1.0" encoding="UTF-8"?>
<svg width="578px" height="238px" viewBox="0 0 578 238" version="1.1" xmlns="http://www.w3.org/2000/svg" xmlns:xlink="http://www.w3.org/1999/xlink">
    <!-- Generator: Sketch 48.2 (47327) - http://www.bohemiancoding.com/sketch -->
    <title>2</title>
    <desc>Created with Sketch.</desc>
    <defs>
        <linearGradient x1="68.0252878%" y1="96.7293723%" x2="22.8798314%" y2="8.71110883%" id="linearGradient-1">
            <stop stop-color="#140521" offset="0%"></stop>
            <stop stop-color="#8C1C79" offset="100%"></stop>
        </linearGradient>
        <circle id="path-2" cx="57" cy="57" r="57"></circle>
    </defs>
    <g id="3首页一屏幕650-" stroke="none" stroke-width="1" fill="none" fill-rule="evenodd" transform="translate(-1342.000000, -116.000000)">
        <g id="2" transform="translate(1332.000000, 105.000000)">
            <g id="Group-6" transform="translate(314.000000, 56.000000)">
                <mask id="mask-3" fill="white">
                    <use xlink:href="#path-2"></use>
                </mask>
                <use id="Oval-5" fill="url(#linearGradient-1)" xlink:href="#path-2"></use>
                <path d="M77.1269531,3.69726563 C78.5976563,10.3033854 78.0169271,13.766276 75.3847656,14.0859375 C71.4365234,14.5654297 60.8837891,2.2265625 57.640625,3.69726563 C54.3974609,5.16796875 54.7314453,20.8095703 54.3974609,23.3173828 C54.0634766,25.8251953 46.4785156,21.5458984 43.4257812,19.4707031 C40.3730469,17.3955078 40.2070313,27.7919922 38.6816406,30.4121094 C37.15625,33.0322266 35.3066406,32.7578125 30.2050781,25.8408203 C25.1035156,18.9238281 31.28125,45.1894531 33.8066406,49.296875 C36.3320312,53.4042969 27.1523438,52.3828125 21.5107422,50.5615234 C17.7496745,49.3473307 17.7496745,55.1210937 21.5107422,67.8828125 C17.2145182,75.922526 17.5895182,81.7063802 22.6357422,85.234375 C30.2050781,90.5263672 29.0537109,95.2011719 30.2050781,98.6835938 C31.3564453,102.166016 30.0736112,106.803711 28.99158,107.435547 C27.9095487,108.067383 7.56347656,102.386719 5.32617187,99.7539063 C3.83463542,97.9986979 -4.58561198,69.4427083 -19.9345703,14.0859375 L40.3730469,-23.4433594 L77.1269531,3.69726563 Z" id="Path-16" fill="#F4B2D1" opacity="0.212805707" mask="url(#mask-3)"></path>
                <path d="M44.6484375,-5 C47.0026042,6.23111979 47.4414062,12.3486328 45.9648437,13.3525391 C43.75,14.8583984 38.2016602,10.1621094 35.3901367,10.9692383 C32.5786133,11.7763672 31.4770508,14.0273437 30.1621094,16.6816406 C27.4575195,15.2939453 24.5957031,14.3383789 22.7475586,15.2939453 C20.8994141,16.2495117 18.7121582,17.6975098 19.5910645,26.479248 C20.1884766,30.0861816 17.449707,34.2475586 15.296875,34.2475586 C10.2758789,34.2475586 14.555276,39.9316406 10.5913086,43.9575195 C6.62734116,47.9833984 7,52.6191406 7,58.1435547 C7,63.6679687 -0.344970703,67.5449219 1.33837891,74.328125 C-1.80452474,73.1188151 -4.04720052,68.5745443 -5.38964844,60.6953125 L-17.7080078,37.5703125 L-3,5.71435547 L44.6484375,-5 Z" id="Path-6" fill="#E0A6BD" mask="url(#mask-3)"></path>
                <path d="M83.4912109,6.63671875 C83.3147786,14.5846354 83.8902995,19.4882812 85.2177734,21.3476562 C87.2089844,24.1367188 93.1181641,33.0029297 97.1230469,33.8222656 C99.7929687,34.3684896 105.213542,33.0683594 113.384766,29.921875 L95.3378906,-2.25097656 L83.4912109,6.63671875 Z" id="Path-15" fill-opacity="0.115998641" fill="#A74DAD" mask="url(#mask-3)"></path>
                <path d="M59.8793945,12 C61.0519206,19.7044271 61.0519206,24.5680339 59.8793945,26.5908203 C58.7068685,28.6136068 58.7068685,31.0641276 59.8793945,33.9423828 C69.0916341,26.0146484 73.8068034,21.2880859 74.0249023,19.7626953 C74.2430013,18.2373047 69.527832,15.6497396 59.8793945,12 Z" id="Path-17" fill="#762B76" opacity="0.356827446" mask="url(#mask-3)"></path>
                <path d="M45.3671875,24.0927734 C43.2773437,27.8759766 42.1347656,30.2773438 41.9394531,31.296875 C41.6464844,32.8261719 49.6806641,28.765625 50.9873047,27.6948242 C51.8583984,26.980957 49.985026,25.7802734 45.3671875,24.0927734 Z" id="Path-18" fill="#762E76" opacity="0.356827446" mask="url(#mask-3)"></path>
                <path d="M35.4550781,36.453125 C40.0273438,37.6438802 42.2874349,39.2845052 42.2353516,41.375 C42.1572266,44.5107422 40.3368174,48.2470703 38.8456548,48.34375 C37.3544922,48.4404297 33.9931641,49.3105469 33.7177734,47.1328125 C33.5341797,45.6809896 34.1132813,42.1210938 35.4550781,36.453125 Z" id="Path-19" fill="#703477" opacity="0.356827446" mask="url(#mask-3)"></path>
                <path d="M28.4121094,63.359375 C34.7265625,61.766276 38.1149089,62.1422526 38.5771484,64.4873047 C39.2705078,68.0048828 37.3515197,76.0458984 35.9316406,76.9677734 C34.5117616,77.8896484 32.6591797,81.1230469 28.4121094,76.9677734 C25.5807292,74.1975911 25.5807292,69.6614583 28.4121094,63.359375 Z" id="Path-20" fill="#7E276C" opacity="0.356827446" mask="url(#mask-3)"></path>
                <circle id="Oval-6" fill="#7D2772" opacity="0.356827446" mask="url(#mask-3)" cx="50.5" cy="39.5" r="5.5"></circle>
                <path d="M109.90625,41.7324219 C109.90625,41.7324219 95.8095703,41.0527294 95.8095703,47.1240234 C95.8095703,53.1953175 108.089844,62.6162109 113.165039,64.4804688 C118.240234,66.3447266 130.865234,52.9492188 130.777344,52.0820312 C130.689453,51.2148438 109.90625,41.7324219 109.90625,41.7324219 Z" id="Path-21" fill="#58175B" mask="url(#mask-3)"></path>
                <path d="M112.388672,45.1630859 C108.640625,47.008138 106.728841,48.7877604 106.65332,50.5019531 C106.540039,53.0732422 111.400391,59.3476562 114.149414,60.0390625 C115.982096,60.5 118.614583,58.0206706 122.046875,52.6010742 L112.388672,45.1630859 Z" id="Path-22" fill="#4A144B" mask="url(#mask-3)"></path>
                <path d="M42.1962891,53.984375 C44.9012858,54.4012858 46.2537842,55.6616618 46.2537842,57.7655029 C46.2537842,59.8693441 44.9458618,61.1078288 42.3300171,61.480957 C39.7871704,61.0645345 38.5157471,59.8151042 38.5157471,57.732666 C38.5157471,55.6502279 39.7425944,54.4007975 42.1962891,53.984375 Z" id="Path-23" fill="#8F1F69" opacity="0.356827446" mask="url(#mask-3)"></path>
                <path d="M36.0456662,85 C35.7490213,88.2853196 36.8700577,89.9105163 39.4087756,89.8755902 C43.2168524,89.8232011 43.5624846,93.3509621 43.2168524,94.3409124 C42.8712203,95.3308627 36.0456662,98.197296 36.0456662,95.3308627 C36.0456662,92.4644293 32.0593303,92.050079 32.2525577,89.8755902 C32.3813759,88.4259311 33.6457454,86.8007343 36.0456662,85 Z" id="Path-21" fill="#4F124B" mask="url(#mask-3)"></path>
            </g>
            <path d="M324.986129,105.030515 C139.683207,105.942145 -7.53425336,120.123435 -7.53425336,137.483944 C-7.53425336,155.433198 149.837657,169.983944 343.965747,169.983944 C443.79395,169.983944 533.902291,166.136122 597.888703,159.957027 M613.693112,116.643216 C566.111333,111.384209 500.874025,107.537683 426.408703,105.882852" id="Oval-4" stroke="#441A3D" opacity="0.600373641" transform="translate(303.079429, 137.507229) rotate(-20.000000) translate(-303.079429, -137.507229) "></path>
            <path d="M317.386752,112.499285 C149.154459,113.733401 18.5314647,122.824706 18.5314647,133.85665 C18.5314647,145.730772 169.859219,155.35665 356.531465,155.35665 C452.082959,155.35665 538.373894,152.834588 599.849325,148.779905 M610.579392,119.67493 C564.43132,116.332685 502.241764,113.908705 431.662175,112.889694" id="Oval-4" stroke="#441A3D" opacity="0.600373641" transform="translate(314.555429, 133.927967) rotate(-20.000000) translate(-314.555429, -133.927967) "></path>
        </g>
    </g>
</svg>