<?xml version="1.0" encoding="UTF-8"?>
<svg width="32px" height="41px" viewBox="0 0 32 41" version="1.1" xmlns="http://www.w3.org/2000/svg" xmlns:xlink="http://www.w3.org/1999/xlink">
    <!-- Generator: Sketch 50.2 (55047) - http://www.bohemiancoding.com/sketch -->
    <title>支付 (7)</title>
    <desc>Created with Sketch.</desc>
    <defs>
        <path d="M21.2752452,37.7601012 C21.2752452,36.5631397 20.3309053,35.5943681 19.1463171,35.5325833 L19.1463171,35.5213171 L8.98584684,35.5213171 C7.74523004,35.5213171 6.73951017,36.5239271 6.73951017,37.7606585 C6.73951017,38.9985047 7.74523004,40 8.98584684,40 L19.1462772,40 L19.1462772,39.9887338 C20.3309053,39.9264315 21.2752053,38.9571423 21.2752053,37.760141 L21.2752452,37.7601012 Z" id="path-1"></path>
        <filter x="-3.4%" y="-11.2%" width="106.9%" height="144.7%" filterUnits="objectBoundingBox" id="filter-2">
            <feOffset dx="0" dy="1" in="SourceAlpha" result="shadowOffsetOuter1"></feOffset>
            <feColorMatrix values="0 0 0 0 0.921210672   0 0 0 0 0.574936533   0 0 0 0 0.00568850498  0 0 0 1 0" type="matrix" in="shadowOffsetOuter1"></feColorMatrix>
        </filter>
        <path d="M6.73947024,25.9700287 L6.73947024,33.5446407 C6.73947024,33.5446407 7.26792843,34.8619473 9.31606831,34.8619473 L18.9793094,34.8619473 C18.9793094,34.8619473 19.6327239,34.9730564 20.1978423,34.4414363 C21.5995563,33.120945 25.8450328,29.0557267 26.5615044,28.341499 C27.4207431,27.4855085 26.9574586,25.9700287 26.5615044,25.1800827 C26.1650309,24.3890619 23.5216218,18.7246439 23.5216218,18.7246439 C23.5216218,18.7246439 22.9268717,17.5389088 21.2752452,18.2633676 C19.6236187,18.9878265 19.4910749,19.77829 19.6898307,21.1616012 C19.8880674,22.544992 21.6722378,25.4432256 21.6722378,25.4432256 C21.6722378,25.4432256 21.7379706,26.1961086 21.2757644,26.4458356 C20.8135581,26.6944876 15.2633295,31.5684023 15.2633295,31.5684023 L13.2151896,31.5684023 L6.73951017,25.9700287 L6.73947024,25.9700287 Z" id="path-3"></path>
        <filter x="-2.5%" y="-3.0%" width="104.9%" height="111.9%" filterUnits="objectBoundingBox" id="filter-4">
            <feOffset dx="0" dy="1" in="SourceAlpha" result="shadowOffsetOuter1"></feOffset>
            <feColorMatrix values="0 0 0 0 0.921210672   0 0 0 0 0.574936533   0 0 0 0 0.00568850498  0 0 0 1 0" type="matrix" in="shadowOffsetOuter1"></feColorMatrix>
        </filter>
    </defs>
    <g id="Page-1" stroke="none" stroke-width="1" fill="none" fill-rule="evenodd">
        <g id="个人中心-金牌买手" transform="translate(-663.000000, -279.000000)">
            <g id="内容" transform="translate(610.000000, 174.000000)">
                <g id="30天" transform="translate(30.000000, 83.000000)">
                    <g id="支付-(7)" transform="translate(23.000000, 22.000000)">
                        <g id="Shape" fill-rule="nonzero">
                            <use fill="black" fill-opacity="1" filter="url(#filter-2)" xlink:href="#path-1"></use>
                            <use fill="#F5A623" fill-rule="evenodd" xlink:href="#path-1"></use>
                        </g>
                        <path d="M31.5423416,12.7970432 L19.1673228,0.481202625 C18.547254,-0.150897491 17.5296336,-0.161606329 16.8950285,0.457038072 L0.484111512,16.4594658 C-0.151012724,17.0786278 -0.162833447,18.0930613 0.458273648,18.7251216 L5.94652338,24.3508843 L5.94652338,24.2386206 L13.5104281,30.7783767 L14.9632988,30.7783767 C16.800303,29.1673534 19.5611206,26.7641946 20.5641649,25.9892569 L20.8696666,25.684274 C20.871264,25.6746002 20.8739397,25.6687083 20.875577,25.6579597 C20.6396018,25.2648776 20.1456074,24.4142217 19.7076417,23.5056026 L15.1039494,28.1239384 C14.5959379,28.6190529 13.7997164,28.626577 13.3229738,28.1405789 L3.72758204,18.3272226 C3.25195769,17.8417818 3.27671732,17.0480538 3.78361067,16.5534568 L16.8966658,3.76662638 C17.4041183,3.27202934 18.2008589,3.26669483 18.6776015,3.75054322 L28.2718751,13.1944645 C28.7480984,13.6804626 28.7232989,14.4735934 28.2163656,14.9681905 L24.4201565,18.7767151 C24.6475057,19.2648629 25.0552807,20.1359015 25.4932465,21.0708348 L31.5164638,15.0621416 C32.1505098,14.4434972 32.1629295,13.4301386 31.5423416,12.7970034 L31.5423416,12.7970432 Z" id="Path" fill="#EB6001"></path>
                        <g id="Path">
                            <use fill="black" fill-opacity="1" filter="url(#filter-4)" xlink:href="#path-3"></use>
                            <use fill="#F5A623" fill-rule="evenodd" xlink:href="#path-3"></use>
                        </g>
                        <path d="M8.51966869,14.9557349 L16.1132051,12.9902451 L13.8975384,10.7815174 L14.9544548,9.72842856 L17.5353658,12.3012568 L18.9914712,10.8497116 L16.4111193,8.27688337 L17.4814937,7.20986111 L20.0624047,9.78268932 L22.1827469,7.66954495 L23.5106613,8.99274332 L21.3903192,11.1064052 L24.0655164,13.7732244 L22.9951021,14.8402865 L20.3199048,12.1734275 L18.8637994,13.6250125 L21.5390366,16.2918316 L20.4825995,17.3449205 L18.2001218,15.0695909 L16.2021401,22.6129124 L14.7045823,21.1205622 C15.7797888,17.4559898 16.4951822,15.1672444 16.8518006,14.2526937 L16.8248845,14.2258619 C16.4682661,14.3923067 15.6801513,14.6603063 14.4605004,15.0297413 L9.93543985,16.3669527 L8.51974856,14.9556553 L8.51966869,14.9557349 Z" id="Path" fill="#EB6001" transform="translate(16.292593, 14.911387) rotate(185.000000) translate(-16.292593, -14.911387) "></path>
                    </g>
                </g>
            </g>
        </g>
    </g>
</svg>