<?xml version="1.0" encoding="UTF-8"?>
<svg width="178px" height="251px" viewBox="0 0 178 251" version="1.1" xmlns="http://www.w3.org/2000/svg" xmlns:xlink="http://www.w3.org/1999/xlink">
    <!-- Generator: Sketch 50.2 (55047) - http://www.bohemiancoding.com/sketch -->
    <title>握手</title>
    <desc>Created with Sketch.</desc>
    <defs></defs>
    <g id="Page-1" stroke="none" stroke-width="1" fill="none" fill-rule="evenodd">
        <g id="Artboard" transform="translate(-858.000000, -281.000000)">
            <g id="握手" transform="translate(858.000000, 281.000000)">
                <g id="1">
                    <path d="M11.8723996,219.683992 C10.3302656,220.864221 9.37379283,221.710997 9.00298136,222.224319 C8.69611877,223.029833 13.4879139,228.290205 17.0927442,228.99119 C18.3934981,228.126993 19.6439517,226.092805 20.8441049,222.888628 L11.8723996,219.683992 Z" id="Path-14" fill="#F2C5CA"></path>
                    <path d="M47.2333678,119.438941 C38.7970235,181.854921 30.4100594,216.382162 22.0724754,223.020664 C16.5066229,223.020664 13.9983547,220.746702 11.4813659,219.520602 C11.3695527,219.466135 11.425827,218.960054 11.6501888,218.00236 C18.5983799,176.813694 20.9174084,152.578882 18.6072744,145.297924 C15.1420735,134.376488 7.99728177,129.111532 7.99728177,114.027278 C7.99728177,103.971109 21.0759771,105.774996 47.2333678,119.438941 Z" id="Path-12" fill="#151A51"></path>
                    <path d="M59.9973794,11.7925106 L59.9973794,25.4041908 L58.1649451,24.8478495 L58.1649451,29.8379584 L55.9580188,30.4807194 L55.9580188,33.9141271 C53.6006516,34.5483302 51.953853,34.5483302 51.017623,33.9141271 C50.0813931,33.279924 48.8316296,35.2754479 47.2683326,39.900699 L33.2607684,31.3112199 C35.3445509,29.3311308 36.3864422,27.3621211 36.3864422,25.4041908 C36.3864422,23.4462606 43.4485758,17.5672739 57.5728429,7.76723094 L59.9973794,11.7925106 Z" id="Path-6" fill="#F3C4CA"></path>
                    <path d="M53.0375334,18.0807492 L53.6369966,12.0506236 L60.7459033,12.0506236 C64.6868103,8.99911321 65.9866441,5.96945608 64.6454046,2.96165222 C62.6335453,-1.55005358 38.9973046,0.637717993 38.9973046,1.23830072 C38.9973046,1.83888344 34.2646277,7.70258806 33.0868642,7.70258806 C31.9091008,7.70258806 30.5215482,26.2074129 36.9946466,26.2074129 C41.3100456,26.2074129 45.8675915,22.7220464 50.6672844,15.7513135 L53.0375334,18.0807492 Z" id="Path-5" fill="#44152E"></path>
                    <path d="M55.4491882,52.3708136 C61.6379672,63.3564344 79.0900295,94.7160219 90.1784886,99.3492196 C91.8150891,102.342658 91.8150891,106.012479 90.1784886,110.35868 C63.5091231,94.362027 48.1822491,83.0674041 44.1978665,76.4748116 C38.2212925,66.5859228 49.2604091,41.3851928 55.4491882,52.3708136 Z" id="Path-9" fill="#2A8FF7"></path>
                    <path d="M33.5667108,31.6025713 L47.6952719,40.6305675 C51.7646901,45.890633 54.249955,49.4146629 55.1510668,51.2026573 C56.5027344,53.8846489 44.144499,65.1902748 53.1746324,85.937428 C54.0665429,99.6661683 53.6193608,110.401776 51.8330862,118.14425 C34.6690238,120.626047 20.8839771,120.159946 10.4779461,116.745946 C5.90184425,92.5056329 13.5980992,70.6578699 33.5667108,51.2026573 L33.5667108,31.6025713 Z" id="Path-8" fill="#409AFF"></path>
                    <path d="M33.3380591,31.8221737 C31.3758867,31.8221737 16.9496644,40.3096454 15.3744057,43.1333012 C13.7991471,45.9569569 2.76635571,82.5205249 2.76635571,86.5655183 C2.76635571,89.2621806 2.76635571,99.4352573 2.76635571,117.084748 L10.880962,117.084748 C11.2014732,100.467404 12.0305083,91.0614836 13.3680672,88.866988 C14.7056262,86.6724923 18.2758751,79.7164301 24.0788139,67.9988014 C30.2207067,59.9929548 33.7532303,54.3979078 34.6763849,51.2136603 C38.381438,38.4337785 34.290287,31.8221737 33.3380591,31.8221737 Z" id="Path-7" fill="#2A8FF7"></path>
                    <path d="M9.67099408,116.526802 C11.9087447,121.954359 13.02762,124.668137 13.02762,124.668137 C13.02762,124.668137 11.9087447,125.989419 9.67099408,128.631983 C3.32211285,128.122175 0.147672234,126.800893 0.147672234,124.668137 C0.147672234,122.53538 1.17300122,119.821602 3.22365918,116.526802 L9.67099408,116.526802 Z" id="Path-10" fill="#F0C3C9"></path>
                    <path d="M90.6430539,100.15367 C95.9834752,98.9647298 99.2370468,98.9647298 100.403769,100.15367 C102.153852,101.937079 102.961724,104.731852 102.557788,105.992617 C102.153852,107.253383 98.3943438,113.372908 96.6515549,113.372908 C94.908766,113.372908 89.0981595,109.547517 89.0981595,109.547517 C89.0981595,109.547517 89.6131243,106.416235 90.6430539,100.15367 Z" id="Path-11" fill="#F2C5CA"></path>
                    <path d="M39.7644502,228.964141 C46.8632355,228.40757 53.8012394,227.65753 53.8012394,225.808102 C53.8012394,223.958674 53.8012394,155.438145 44.9680134,137.598545 C39.079196,125.705479 32.5935224,123.334018 25.5109927,130.484162 C35.0132977,165.996481 39.7644502,198.82314 39.7644502,228.964141 Z" id="Path-13" fill="#1A1D52"></path>
                    <path d="M9.18056601,222.257557 C5.6610775,222.662836 3.63633646,223.449706 3.1063429,224.618168 C2.31135256,226.370861 2.68745476,232.844318 3.90133325,235.007103 C5.11521173,237.169889 19.0411147,250.553944 22.1976128,250.553944 C25.3541109,250.553944 31.8561934,249.602181 31.8561934,247.620028 C31.8561934,245.637876 23.7628126,244.657459 20.5869292,237.984572 C18.4696736,233.535981 17.5165747,230.516258 17.7276324,228.925401 L9.18056601,222.257557 Z" id="Path-15" fill="#F49D3F"></path>
                    <path d="M39.9949531,229.309132 C38.0974964,234.855124 37.8617137,237.803481 39.2876049,238.154203 C41.4264418,238.680286 65.7661202,238.520971 67.674235,237.678092 C69.5823499,236.835213 75.2625283,233.705994 74.7044708,232.124306 C74.1464134,230.542619 67.4800881,229.788452 65.9970722,229.788452 C65.008395,229.788452 59.8007021,229.628679 50.3739937,229.309132 L49.8099554,227.223826 L39.9949531,229.309132 Z" id="Path-16" fill="#F49D3F"></path>
                </g>
                <g id="2" transform="translate(92.000000, 0.000000)">
                    <path d="M36.5279,13.8935936 C35.4783002,18.1883749 35.2159002,21.586657 35.7407002,24.0884402 C36.5279,27.8411149 39.1831378,33.4124129 42.0047472,35.7455287 C42.9187506,37.3529546 43.2856632,39.8368383 43.105485,43.1971799 L57.4250258,35.7455287 C55.5988701,31.9692177 55.0175331,28.3712885 55.6810147,24.9517412 C57.644618,24.7683873 60.1121957,19.0245209 58.6555751,12.2282625 C57.0799413,8.97577612 53.9321444,6.79725281 49.2121846,5.69269254 L36.5279,10.9158705 L36.5279,13.8935936 Z" id="Path-18" fill="#F2C5CA"></path>
                    <path d="M64.1854114,121.557011 C60.8323687,122.184255 59.1558474,123.257912 59.1558474,124.777982 C59.1558474,127.058089 61.1930337,134.476695 64.1854114,134.476695 C67.1777891,134.476695 73.5846058,133.13011 72.0388988,126.53763 C71.0084274,122.142642 68.3905983,120.482436 64.1854114,121.557011 Z" id="Path" fill="#F2C5CA"></path>
                    <path d="M38.1814363,228.988196 C36.2746016,228.988196 30.0886883,231.084413 19.6236965,235.276846 C19.2233862,238.605978 26.7461354,239.404872 42.1919444,237.673528 C48.7189313,236.618994 51.8046376,235.244107 51.4490633,233.548867 L51.7929137,225.759193 C44.6254302,227.911861 40.0882711,228.988196 38.1814363,228.988196 Z" id="Path-21" fill="#243063"></path>
                    <path d="M66.8580036,233.449503 C54.8881843,236.989603 48.4666355,239.215475 47.5933573,240.12712 C46.2834401,241.494587 51.4523028,244.243061 53.6387378,244.243061 C55.8251727,244.243061 62.6434067,245.037288 65.5124517,243.807279 C68.3814968,242.57727 79.7049576,238.149468 79.7049576,235.108408 C79.7049576,233.081035 75.4226396,232.528067 66.8580036,233.449503 Z" id="Path-22" fill="#243063"></path>
                    <path d="M51.3410027,14.8922875 C55.7451878,13.9725345 58.4288097,12.8834258 59.3918685,11.6249614 C60.8364567,9.73726487 60.6131622,5.3475557 57.9472804,4.76834999 C55.2813986,4.18914428 53.7595251,1.02646083 53.7595251,0.526195992 C53.7595251,0.0259311588 45.566121,1.3169816 43.2383047,2.98506649 C40.9104885,4.65315139 34.7313627,5.21675251 33.4337093,4.76834999 C32.1360559,4.31994747 31.2789752,13.0562237 33.4337093,13.6687039 C35.5884434,14.2811841 37.9403245,13.9959414 38.527832,11.6249614 C39.1153395,9.2539815 47.0324601,12.6998424 47.0324601,11.0891273 C47.0324601,9.47841224 50.2347115,9.45615275 50.575091,9.45615275 C50.8020106,9.45615275 51.0573145,11.2681977 51.3410027,14.8922875 Z" id="Path-17" fill="#4A1717"></path>
                    <path d="M58.2598927,36.0135605 C72.9789725,41.0486419 81.1900396,45.7306312 82.893094,50.0595284 C85.4476757,56.5528741 86.8082681,90.2881643 84.850681,94.6859053 C82.893094,99.0836462 73.9816766,122.6374 72.2505958,125.419606 C71.0163257,126.713258 68.4794163,125.415935 64.6398677,121.527638 L64.6398677,106.571096 L35.0724364,110.379534 L31.9976827,94.6859053 L16.1861182,106.571096 C13.979552,99.5459705 12.2274422,96.0334076 10.9297888,96.0334076 C8.98330863,96.0334076 27.8964685,87.9483936 31.9976827,57.4010296 C33.1632877,50.2571865 36.486095,45.6455709 41.9661045,43.5661826 L58.2598927,36.0135605 Z" id="Path-19" fill="#FF7777"></path>
                    <path d="M35.4408145,110.498864 C38.3779663,186.80409 39.1122543,226.313997 37.6436784,229.028584 C43.8283575,230.272056 48.5535623,229.540399 51.8192925,226.833615 C54.5790429,197.238284 55.0252462,167.707972 53.1579026,138.242679 C56.0015715,144.468605 60.553617,176.087867 66.8140389,233.100465 C73.9872301,234.775357 78.3380405,235.612804 79.8664701,235.612804 C82.1591146,235.612804 79.9738366,203.087328 75.9355613,192.226533 C73.2433778,184.986003 73.9332383,154.993978 78.0051427,102.25046 L35.4408145,110.498864 Z" id="Path-20" fill="#5F2377"></path>
                    <path d="M4.47593808,96.1012148 C9.67169787,95.1941853 12.8576795,95.3359238 14.0338829,96.5264304 C15.798188,98.3121902 16.6126253,101.110646 16.2054066,102.373072 C15.798188,103.635499 12.0081282,109.763088 10.2511764,109.763088 C8.49422461,109.763088 4.66987794,108.352711 3.18786638,106.963774 C2.19985867,106.037816 2.6292159,102.416963 4.47593808,96.1012148 Z" id="Path-11-Copy" fill="#F2C5CA" transform="translate(9.489918, 102.637984) rotate(-210.000000) translate(-9.489918, -102.637984) "></path>
                </g>
            </g>
        </g>
    </g>
</svg>