<?xml version="1.0" encoding="UTF-8"?>
<svg width="115px" height="115px" viewBox="0 0 115 115" version="1.1" xmlns="http://www.w3.org/2000/svg" xmlns:xlink="http://www.w3.org/1999/xlink">
    <!-- Generator: Sketch 48.2 (47327) - http://www.bohemiancoding.com/sketch -->
    <title>1</title>
    <desc>Created with Sketch.</desc>
    <defs>
        <linearGradient x1="73.603482%" y1="9.81624894%" x2="20.4039885%" y2="89.7275905%" id="linearGradient-1">
            <stop stop-color="#B5B1A6" offset="0%"></stop>
            <stop stop-color="#9C9791" offset="16.5939361%"></stop>
            <stop stop-color="#201529" offset="100%"></stop>
        </linearGradient>
        <circle id="path-2" cx="47.5" cy="47.5" r="47.5"></circle>
        <filter x="-16.8%" y="-14.7%" width="133.7%" height="133.7%" filterUnits="objectBoundingBox" id="filter-4">
            <feOffset dx="0" dy="2" in="SourceAlpha" result="shadowOffsetOuter1"></feOffset>
            <feGaussianBlur stdDeviation="5" in="shadowOffsetOuter1" result="shadowBlurOuter1"></feGaussianBlur>
            <feColorMatrix values="0 0 0 0 0   0 0 0 0 0   0 0 0 0 0  0 0 0 0.230751812 0" type="matrix" in="shadowBlurOuter1"></feColorMatrix>
        </filter>
        <linearGradient x1="43.1974806%" y1="2.7592001%" x2="97.1084436%" y2="94.3312588%" id="linearGradient-5">
            <stop stop-color="#4D444C" offset="0%"></stop>
            <stop stop-color="#3F3641" offset="40.3068677%"></stop>
            <stop stop-color="#2D2532" offset="100%"></stop>
        </linearGradient>
    </defs>
    <g id="3首页一屏幕650-" stroke="none" stroke-width="1" fill="none" fill-rule="evenodd" transform="translate(-141.000000, -377.000000)">
        <g id="1" transform="translate(151.000000, 385.000000)">
            <mask id="mask-3" fill="white">
                <use xlink:href="#path-2"></use>
            </mask>
            <g id="Oval-3">
                <use fill="black" fill-opacity="1" filter="url(#filter-4)" xlink:href="#path-2"></use>
                <use fill="url(#linearGradient-1)" fill-rule="evenodd" xlink:href="#path-2"></use>
            </g>
            <path d="M48.9482422,-7.10542736e-15 C44.5667318,4.38997396 43.4713542,7.15917969 45.6621094,8.30761719 C48.9482422,10.0302734 60.5654297,4.86230469 63.0107422,6.58496094 C65.4560547,8.30761719 59.2451172,19.2050781 60.5654297,22.7021484 C61.8857422,26.1992188 68.2617188,21.6445313 69.1337891,21.0957031 C70.0058594,20.546875 73.5400391,27.0927734 72.1113281,30.0166016 C70.6826172,32.9404297 67.2646484,34.5625 70.6826172,35.0556641 C74.1005859,35.5488281 75.5527344,31.6064453 80.4781901,30.0166016 C85.4036458,28.4267578 75.2568359,46.4970703 69.1337891,48.3583984 C63.0107422,50.2197266 73.1171875,54.1318359 78.2460938,52.3710938 C81.6653646,51.1972656 79.9990234,55.203125 73.2470703,64.3886719 C75.1142578,68.4576823 75.1142578,72.3919271 73.2470703,76.1914062 C71.3798828,79.9908854 67.8631783,80.9892578 62.6969566,79.1865234 C62.1327095,79.2119141 61.4222005,81.8538411 60.5654297,87.1123047 C59.7086589,92.3707682 57.0227865,94.6409505 52.5078125,93.9228516 L90.0605469,108.737305 L116.389648,-17.1679688 L48.9482422,-7.10542736e-15 Z" id="Path-3" fill="#827E77" opacity="0.25464221" mask="url(#mask-3)"></path>
            <path d="M41.3867187,94.8929407 C41.3867187,90.7822768 41.3867187,87.6256123 41.3867187,85.4229472 C41.3867187,82.1189495 35.4716797,89.3359445 33.328125,88.7269449 C31.1845703,88.1179453 29.0214844,83.2799487 29.3720703,78.0769523 C29.7226562,72.8739559 23.5625,78.0769523 21.4570312,78.0769523 C19.3515625,78.0769523 25.4047852,66.9899599 21.4570312,66.9899599 C17.5092773,66.9899599 10.6523437,65.3049611 9.02246094,63.981962 C7.39257812,62.6589629 20.2304688,50.6129712 15.8554688,50.6129712 C11.4804688,50.6129712 5.39941406,47.3279735 4.44824219,45.4039748 C3.49707031,43.4799762 16.2324219,38.9324081 14.6191406,35.9129814 C13.0058594,32.8935547 9.02246094,29.0639861 9.02246094,28.1039868 C9.02246094,27.1439875 15.9980469,25.7939884 24.6630859,25.7939884 C30.4397786,25.7939884 27.0917969,20.1959923 14.6191406,9 L-6.36816406,14.8879959 L-1.73242187,99.4609375 L41.3867187,94.8929407 Z" id="Path-4" fill="url(#linearGradient-5)" opacity="0.409816576" mask="url(#mask-3)"></path>
            <path d="M16.4716797,10.3310547 C16.4716797,10.3310547 26.3066406,16.6923828 33.8359375,13.1845703 C41.3652344,9.67675781 45.171875,2.74121094 44.1308594,-3.01757812 C43.436849,-6.85677083 37.031901,-7.69498698 24.9160156,-5.53222656 C19.2864583,5.04329427 16.4716797,10.3310547 16.4716797,10.3310547 Z" id="Path-5" fill="#D8D8D8" opacity="0.109261775" mask="url(#mask-3)"></path>
            <path d="M59.1791992,26.2714844 C61.2610753,31.3522135 63.1954829,33.8925781 64.9824219,33.8925781 C66.7693609,33.8925781 67.3286057,31.0548503 66.6601562,25.3793945 L59.1791992,26.2714844 Z" id="Path-8" fill="#766F71" mask="url(#mask-3)"></path>
            <path d="M67.098683,37.0644531 C70.0765141,35.6546224 71.5654297,35.9934896 71.5654297,38.0810547 C71.5654297,41.2124023 69.4287109,44.8730469 67.9951172,44.7880859 C67.039388,44.7314453 65.1764323,42.4957682 62.40625,38.0810547 L67.098683,37.0644531 Z" id="Path-11" fill="#766F71" mask="url(#mask-3)"></path>
            <path d="M59.4808577,42.2988281 C63.1225255,45.3417969 64.2630208,47.3310547 62.9023437,48.2666016 C60.8613281,49.6699219 57.3886719,51.0732422 55.9189453,49.6699219 C54.9391276,48.734375 56.1264317,46.2773438 59.4808577,42.2988281 Z" id="Path-14" fill="#766F71" mask="url(#mask-3)"></path>
            <path d="M37.2519531,18.7910156 C34.4873047,22.0885417 33.5166016,24.5354818 34.3398438,26.1318359 C35.574707,28.5263672 40.0366211,33.6333008 41.5649414,29.6860352 C43.0932617,25.7387695 43.0522461,24.9247961 42.2216797,21.8642578 C41.6679688,19.8238989 40.0113932,18.7994849 37.2519531,18.7910156 Z" id="Path-7" fill="#807A7A" mask="url(#mask-3)"></path>
            <path d="M50.3188477,31.2363281 C46.5623372,33.2747396 46.257487,35.0966797 49.4042969,36.7021484 C54.1245117,39.1103516 60.4453125,37.1982422 60.4580078,34.2939453 C60.4707031,31.3896484 60.6630859,28.9248047 56.6357422,28.8779297 C53.9508464,28.8466797 51.8452148,29.6328125 50.3188477,31.2363281 Z" id="Path-10" fill="#807A7A" mask="url(#mask-3)"></path>
            <path d="M62.3779297,52.9765625 C67.3336589,54.8736979 69.6490885,56.758138 69.3242187,58.6298828 C68.8369141,61.4375 66.9521484,67.0332031 64.6650391,66.4296875 C62.3779297,65.8261719 57.0136719,61.6269531 57.78125,58.6298828 C58.2929687,56.6318359 59.8251953,54.7473958 62.3779297,52.9765625 Z" id="Path-13" fill="#807A7A" mask="url(#mask-3)"></path>
            <path d="M45.1767578,13.109375 C44.757487,14.7151693 46.6002604,18.9511719 50.7050781,25.8173828 C55.985026,17.8815104 58.3382161,13.0527344 57.7646484,11.3310547 C56.9042969,8.74853516 45.8056641,10.7006836 45.1767578,13.109375 Z" id="Path-9" fill="#807A7A" mask="url(#mask-3)"></path>
            <path d="M58.331543,68.6040039 C60.1210938,68.6040039 60.2158203,70.3256836 63.65625,69.4648437 C67.0966797,68.6040039 67.2407227,67.4423828 68.9287109,66.5756836 C70.6166992,65.7089844 72.3134766,70.0708008 71.3144531,72.1933594 C70.3154297,74.315918 67.1416016,77.1494141 63.65625,77.1494141 C60.1708984,77.1494141 54.8369141,76.0488281 54.6210938,73.2011719 C54.4052734,70.3535156 56.5419922,68.6040039 58.331543,68.6040039 Z" id="Path-12" fill="#807A7A" mask="url(#mask-3)"></path>
        </g>
    </g>
</svg>