<?xml version="1.0" encoding="UTF-8"?>
<svg width="154px" height="60px" viewBox="0 0 154 60" version="1.1" xmlns="http://www.w3.org/2000/svg" xmlns:xlink="http://www.w3.org/1999/xlink">
    <!-- Generator: Sketch 50.2 (55047) - http://www.bohemiancoding.com/sketch -->
    <title>Group 2</title>
    <desc>Created with Sketch.</desc>
    <defs></defs>
    <g id="Group-2" stroke="none" stroke-width="1" fill="none" fill-rule="evenodd">
        <g>
            <rect id="Rectangle" x="0" y="0" width="154" height="60"></rect>
            <g id="new_logo" transform="translate(13.000000, 11.000000)" fill="#FFFFFF" fill-rule="nonzero">
                <g id="牛人都在看1">
                    <g id="Group">
                        <path d="M21.2693906,29.6379942 C22.1200777,28.6120908 23.4949575,28.2836313 24.3402803,28.9043327 C25.1855538,29.5250341 25.181272,30.8599451 24.3305848,31.8858021 C23.4798977,32.9117056 22.1050178,33.2401651 21.2597443,32.6195099 C20.4144216,31.9987159 20.4187526,30.6638513 21.2693906,29.6379942" id="Shape"></path>
                        <path d="M16.7305727,29.6379942 C15.8798939,28.6120908 14.505077,28.2836313 13.6597135,28.9043327 C12.8144484,29.5250341 12.8187301,30.8599451 13.6694088,31.8858021 C14.5200876,32.9117056 15.8949537,33.2401651 16.740268,32.6195099 C17.5855823,31.9987159 17.5812513,30.6638513 16.7305727,29.6379942" id="Shape"></path>
                        <path d="M38,4.5750837 C38,3.91257698 37.9108261,3.27122207 37.7464519,2.66078567 C37.6351446,2.62565847 37.522504,2.59360689 37.4091701,2.56322807 C37.2346624,2.51865807 37.1400486,2.49615723 37.0446346,2.47532914 C36.4515647,2.35052229 35.9002549,2.29014236 35.3344384,2.29014236 C31.4325498,2.29014236 28.1895983,5.07916728 27.5164745,8.75608507 C27.2113528,8.50960104 26.881271,8.29317213 26.5320424,8.1109531 C26.7750837,7.36227409 27.2101261,6.04330399 27.482341,5.34561608 C27.8762631,4.33599208 27.482341,3.83115308 27.482341,3.83115308 L24.9875003,0.111499892 C24.8037126,-0.127645721 24.0684018,0.0318026865 23.6482394,0.456890484 C23.2280237,0.881978282 23.4906385,1.38681728 23.4906385,1.38681728 C23.4906385,1.38681728 23.8320271,2.10420018 24.0684018,2.52928797 C24.3047765,2.95437577 23.9895746,3.80460536 23.9895746,3.80460536 L22.5551132,7.45880646 L20.4180879,7.45880646 L17.5818587,7.45880646 L15.4448333,7.45880646 L14.0103719,3.80460536 C14.0103719,3.80460536 13.6952235,2.95437577 13.9315982,2.52928797 C14.1679195,2.10420018 14.5093081,1.38681728 14.5093081,1.38681728 C14.5093081,1.38681728 14.7719229,0.881978282 14.3517606,0.456890484 C13.9315982,0.0318026865 13.1962341,-0.127645721 13.0124464,0.111499892 L10.5176057,3.83115308 C10.5176057,3.83115308 10.1236835,4.33599208 10.5176057,5.34561608 C10.7898205,6.04330399 11.2249163,7.36227403 11.4679043,8.1109531 C11.1186224,8.29317213 10.7885939,8.50960104 10.4834721,8.75608507 C9.8103484,5.07916728 6.56745022,2.29014236 2.66550829,2.29014236 C2.09969177,2.29014236 1.54838201,2.35052229 1.01621901,2.46227107 C0.859951483,2.49615723 0.76523096,2.51865807 0.671203778,2.54283163 C0.47749606,2.59360689 0.364802078,2.62565847 0.253494774,2.66078567 C0.0891738573,3.27122213 0,3.91257698 0,4.5750837 C0,8.62507297 3.27644505,11.908199 7.31812105,11.908199 C7.72948336,11.908199 8.1326856,11.8735575 8.5253812,11.8078356 C8.49338099,11.9413837 8.46836749,12.0771981 8.44676738,12.2140378 C6.00542036,13.2887361 4.29773082,15.7496913 4.29773082,18.6151759 C4.29773082,21.7693943 6.36654241,24.4336663 9.20586497,25.2978713 L9.31626562,26.2824045 C7.79151044,27.5250228 6.86729191,29.1513425 6.86729191,30.9314988 C6.86729191,34.8346121 11.3084901,37.9988129 16.7869742,37.9988129 L17.5818587,38 L20.4180879,38 L21.2130257,38 C26.6915098,37.9988129 31.132708,34.8346121 31.132708,30.9314988 C31.132708,29.1513425 30.2084894,27.5250228 28.6836809,26.2824045 L28.7810148,25.2005296 C31.4678566,24.246753 33.395174,21.6593183 33.395174,18.615176 C33.395174,15.8810812 31.840232,13.5156871 29.5770727,12.3708423 C29.5526991,12.1802596 29.5187256,11.992321 29.4746187,11.8078356 C29.8672611,11.8735575 30.2704633,11.908199 30.681879,11.908199 C34.7235016,11.908199 38,8.62507297 38,4.5750837 Z M19,35.8888889 C13.1044147,35.8888889 10.1333334,33.7683088 10.1333334,31.1535094 C10.1333334,28.5387536 13.0889498,26.4190476 19.0292157,26.4190476 C24.9694816,26.4190476 27.8666666,28.5387099 27.8666666,31.1535094 C27.8666666,33.7683088 24.8955853,35.8888889 19,35.8888889 Z M11.5845283,13.7523809 C14.3828319,13.7523809 16.6512416,16.0207907 16.6512416,18.8190476 C16.6512416,21.6173045 14.3828319,23.8857143 11.5845283,23.8857143 C8.78631803,23.8857143 6.5179083,21.6173045 6.5179083,18.8190476 C6.5179083,16.0207907 8.78631803,13.7523809 11.5845283,13.7523809 Z M26.0632627,23.8857143 C23.2649929,23.8857143 20.9965727,21.6173045 20.9965727,18.8190476 C20.9965727,16.0207907 23.2649929,13.7523809 26.0632627,13.7523809 C28.8614859,13.752381 31.1299061,16.0207907 31.1299061,18.8190476 C31.1299061,21.6173045 28.8614859,23.8857143 26.0632627,23.8857143 Z" id="Shape"></path>
                        <path d="M17.7333334,18.0630324 C18.0663334,17.843233 18.4252137,17.7333334 18.8099741,17.7333334 C19.1947346,17.7333334 19.5596639,17.843233 19.9047619,18.0630324 L19.9047619,19.1809524 C19.5226091,18.961153 19.1607044,18.8512533 18.8190476,18.8512533 C18.4773909,18.8512533 18.1154861,18.961153 17.7333334,19.1809524 L17.7333334,18.0630324 Z" id="Rectangle-4"></path>
                        <path d="M14.4761905,19 C14.4761905,19.8994408 13.7470598,20.6285715 12.8476191,20.6285715 C11.9481783,20.6285715 11.2190476,19.8993955 11.2190476,19 C11.2190476,18.1005592 11.9481783,17.3714285 12.8476191,17.3714285 C13.7470598,17.3714285 14.4761905,18.1005592 14.4761905,19" id="Shape"></path>
                        <path d="M26.7809524,19 C26.7809524,19.8994408 26.0518116,20.6285715 25.1524036,20.6285715 C24.252905,20.6285715 23.5238095,19.8993955 23.5238095,19 C23.5238095,18.1005592 24.2529503,17.3714285 25.1524036,17.3714285 C26.0518116,17.3714739 26.7809524,18.1005592 26.7809524,19" id="Shape"></path>
                    </g>
                </g>
                <path d="M68.7715736,22.5020017 L58.9103884,22.5020017 L58.8340854,31.7410971 C58.8340854,32.0687201 58.5851784,32.4883544 58.0873642,33 C57.5338971,32.5586039 57.2571636,32.1740944 57.2571636,31.8464714 L57.2571636,22.5020017 L46.1991391,22.5020017 C45.8856331,22.5020017 45.4859201,22.235305 45,21.7019117 C45.4859201,21.1751726 45.8856331,20.9118031 46.1991391,20.9118031 L57.2571636,20.9997779 L57.2571636,14.4629402 L51.3573339,14.4918481 C50.9171292,15.2125384 48.7290368,19.0191541 48.5514698,19.2406426 C48.3759006,19.3269185 47.9379219,19.46665 47.2375337,19.6598372 C47.2183826,18.9359423 47.2183826,18.4857142 47.2375337,18.3091528 C48.1870269,16.7310412 51.630794,10.798164 52.0690708,10.0453056 C52.2857926,9.929641 52.6939027,9.7743517 53.2934011,9.5794378 C53.3844688,10.118562 53.4364647,10.5527301 53.449389,10.8819419 C53.33028,11.0835855 52.9914425,11.8169234 52.4458945,12.860644 L57.2571636,12.860644 L57.2571636,9.222431 C57.2571636,8.9140799 57.5338971,8.5066029 58.0873642,8 C58.636047,8.5066029 58.9103884,8.9140799 58.9103884,9.222431 L58.9103884,12.860644 L66.2555779,12.860644 C66.5494898,12.860644 66.9025762,13.1282921 67.314837,13.6635883 C66.9056312,14.1920772 66.5525449,14.4585279 66.2555779,14.4629402 L58.9103884,14.4629402 L58.9103884,20.9997779 L68.7715736,20.9118031 C69.0654855,20.9118031 69.4749609,21.1751726 70,21.7019117 C69.4749609,22.235305 69.0654855,22.5020017 68.7715736,22.5020017 Z M97.7924,17 L76.2141125,17 C75.9261267,17 75.5214225,16.7349674 75,16.2049023 C75.5214225,15.7137465 75.9261267,15.4681687 76.2141125,15.4681687 L85.807194,15.4681687 L85.807194,13.9117309 L78.986928,13.9117309 C78.7181413,13.9117309 78.3202106,13.6598706 77.7931361,13.15615 C78.3202106,12.6284322 78.7181413,12.3645733 78.986928,12.3645733 L85.807194,12.3645733 L85.807194,10.8535989 L77.4057041,10.8535989 C77.1369173,10.8535989 76.7397201,10.5930052 76.2141125,10.0718179 C76.7397201,9.556255 77.1369173,9.2984735 77.4057041,9.2984735 L85.807194,9.2984735 L85.807194,8.134801 C85.807194,7.8399244 86.072122,7.4616575 86.601979,7 C87.129459,7.4616575 87.3932,7.8399244 87.3932,8.134801 L87.3932,9.3664809 L96.180168,9.2984735 C96.448955,9.2984735 96.864023,9.556255 97.425371,10.0718179 C96.864023,10.5930052 96.448955,10.8535989 96.180168,10.8535989 L87.3932,10.8535989 L87.3932,12.3645733 L94.575951,12.3645733 C94.832807,12.4275033 95.255523,12.6913621 95.844101,13.15615 C95.263693,13.6158447 94.840977,13.867705 94.575951,13.9117309 L87.3932,13.9117309 L87.3932,15.4681687 L97.7924,15.4681687 C98.061187,15.4681687 98.46372,15.7137465 99,16.2049023 C98.212417,16.7349674 97.809884,17 97.7924,17 Z M85.101523,31.8100062 L85.101523,25.7474209 C84.880825,25.7474209 76.6052418,25.7474209 76.2282972,25.7474209 C75.9440203,25.6293293 75.5345879,25.3590692 75,24.9366406 C75.4773974,24.5162723 75.8868298,24.248371 76.2282972,24.1329365 C81.1747972,24.1705908 83.8976386,24.1705908 84.396821,24.1329365 C83.8266865,23.7849284 79.4895328,21.3195151 79.0419297,21.0573747 C78.8954068,20.9443776 78.7509361,20.4946622 78.6085173,19.7082285 C79.3032697,19.7082285 79.7402749,19.7082285 79.919533,19.7082285 C80.0905377,19.7979316 81.9260051,20.8306488 82.3858221,21.0922282 C83.2142131,20.2484094 84.524699,18.9427205 85.295243,18.1888616 C85.411055,18.0926323 85.860769,18.0296784 86.644384,18 C86.619451,18.5482055 86.594568,18.9366981 86.569734,19.1654779 C86.360986,19.3976738 84.460692,21.2708618 83.7992163,21.958244 C84.187913,22.1961851 85.003987,22.562781 85.226383,22.6969875 C86.061475,21.8742869 89.416429,18.5362933 89.763908,18.1888616 C89.944032,18.1434309 90.414674,18.1321672 91.175834,18.1550704 C91.175834,18.4846007 91.175834,18.7840868 91.175834,19.0535288 C90.528046,19.6925186 87.244342,23.4743737 86.644384,24.1329365 C88.08684,24.1329365 90.905452,24.1597779 92.841682,24.1597779 C92.556304,23.8612579 91.527812,22.8490088 91.175834,22.4979225 C91.164215,22.2759652 91.136921,21.8831627 91.093951,21.3195151 C91.551346,21.307977 91.955754,21.307977 92.307175,21.3195151 C92.54226,21.5749045 95.3486,24.3822215 95.912391,24.9366406 C95.962683,25.2707049 95.991886,25.6818672 96,26.1701275 C95.136931,26.1000276 94.611327,25.9591254 94.423189,25.7474209 C94.001554,25.7474209 89.497155,25.7474209 86.729184,25.7474209 L86.729184,31.8100062 C86.729184,32.1371857 86.454089,32.5338503 85.903897,33 C85.368981,32.5338503 85.101523,32.1371857 85.101523,31.8100062 Z M82.6833559,28.2792488 C81.3282003,29.583837 78.6993955,31 78.1247361,31 C77.8374064,31 77.4624944,30.8365081 77,30.5095244 C77.2586648,29.7725365 77.4917551,29.3782954 77.699271,29.3268012 C79.380433,28.8530127 80.5060564,27.9879528 81.966649,27.0095635 C82.0305,26.9752341 82.3749504,27.0333268 83,27.1838418 C82.916606,27.8282895 82.811058,28.1934252 82.6833559,28.2792488 Z M95,31 C94.200427,30.859436 93.75152,30.7475727 93.653279,30.6644103 C92.413882,29.6874015 90.545061,28.7704649 89.486606,28.3885787 C89.315118,28.3267067 89.152916,27.9957342 89,27.3956612 C89.34458,27.1318871 89.647859,27 89.909835,27 C90.327361,27 95,28.7493338 95,29.9219243 C95,30.1880442 95,30.5474027 95,31 Z M121.502108,29.3168877 L121.502108,19.3100635 C119.521464,22.9132321 117.580881,25.3163606 114.607612,27.7137859 C114.402005,27.7683272 113.866135,27.7683272 113,27.7137859 C113.091645,27.0999339 113.174239,26.6744064 113.247782,26.4372036 C117.091724,23.5857226 118.974765,20.5 121.502108,16.0844894 L115.73046,16.0844894 C115.418909,16.0844894 115.044626,15.8041638 114.607612,15.2435126 C115.044626,14.7162868 115.418909,14.4526739 115.73046,14.4526739 L121.502108,14.4526739 L121.502108,9.1826799 C121.502108,8.8346895 121.776431,8.4404628 122.325078,8 C122.874551,8.4404628 123.149287,8.8346895 123.149287,9.1826799 L123.149287,14.4526739 L126.683453,14.4526739 C127.014477,14.4526739 127.453326,14.7162868 128,15.2435126 C127.453326,15.8041638 127.014477,16.0844894 126.683453,16.0844894 L123.149287,16.0844894 L123.149287,29.6155211 C123.149287,31.8084998 122.325078,33 119.79037,33 C119.089378,33 118.36062,32.9977384 117.445295,32.9977384 C117.168546,32.8620406 116.752431,32.5935295 116.19695,32.192205 C116.592085,31.7544651 117.0082,31.4719914 117.445295,31.344784 C117.720675,31.3447646 119.247315,31.3448316 119.889891,31.3448316 C120.691419,31.3448316 121.502108,30.5929992 121.502108,29.3168877 Z M107.955182,30.8273051 L107.955182,20.4350242 C106.657123,22.1514131 105.089304,23.6558206 103.558557,25.248693 C103.421664,25.3911418 102.902145,25.4885052 102,25.5407832 C102.083504,24.6663381 102.182905,24.1720326 102.298204,24.0578665 C104.08533,22.2882929 106.62925,19.6929449 107.955182,16.5533789 L107.955182,15.3514642 L104.232481,15.3514642 C103.884824,15.3324365 103.523836,15.0565352 103.149517,14.5237604 C103.583247,13.9529302 103.944235,13.6675151 104.232481,13.6675151 L107.955182,13.6675151 L107.955182,8.2446282 C107.955182,7.9211578 108.22048,7.5062817 108.751076,7 C109.310249,7.5062817 109.589835,7.9211578 109.589835,8.2446282 C109.589835,8.2446282 109.589835,10.8363311 109.589835,13.6675151 L112.818191,13.6675151 C113.125654,13.6675151 113.51959,13.9529302 114,14.5237604 C113.51959,15.0755629 113.125654,15.3514642 112.818191,15.3514642 L109.589835,15.3514642 L109.589835,18.1770737 C109.589835,22.4583001 109.589835,30.8273051 109.589835,30.8273051 C109.589835,31.1127201 109.310249,31.5036185 108.751076,32 C108.22048,31.5226461 107.955182,31.1317478 107.955182,30.8273051 Z M113.920139,23 C113.281253,22.9445374 112.917442,22.8560804 112.828708,22.7346291 C112.083341,21.7326554 110.672466,20.4574162 110.140061,20.0626993 C110.03358,19.9817318 109.987813,19.6899878 110.00276,19.1874673 C110.315688,19.0624891 110.587506,19 110.818215,19 C111.244139,19 114,21.2164872 114,22.1577352 C114,22.4411217 113.97338,22.7218766 113.920139,23 Z" id="牛素材-copy"></path>
            </g>
        </g>
    </g>
</svg>