<?xml version="1.0" encoding="UTF-8"?>
<svg width="40px" height="40px" viewBox="0 0 40 40" version="1.1" xmlns="http://www.w3.org/2000/svg" xmlns:xlink="http://www.w3.org/1999/xlink">
    <!-- Generator: Sketch 50.2 (55047) - http://www.bohemiancoding.com/sketch -->
    <title>the-cod</title>
    <desc>Created with Sketch.</desc>
    <defs></defs>
    <g id="牛素材" stroke="none" stroke-width="1" fill="none" fill-rule="evenodd">
        <g id="3首页-查看演示ipad" transform="translate(-1378.000000, -17.000000)" fill="#FFFFFF">
            <g id="导航-设计">
                <g id="二维码" transform="translate(1378.000000, 17.000000)">
                    <g id="Shape">
                        <path d="M0,0 L0,15.5 L14.5,15.5 L14.5,0 L0,0 Z M12.25,13.25 L2.25,13.25 L2.25,2.25 L12.25,2.25 L12.25,13.25 Z M25.5,0 L25.5,15.5 L40,15.5 L40,0 L25.5,0 Z M37.75,13.25 L27.75,13.25 L27.75,2.25 L37.75,2.25 L37.75,13.25 Z M0,24.5 L0,40 L14.5,40 L14.5,24.5 L0,24.5 Z M12.25,37.75 L2.25,37.75 L2.25,26.75 L12.25,26.75 L12.25,37.75 Z M0,19 L7.75,19 L7.75,21.25 L0,21.25 L0,19 Z M32.25,19 L40,19 L40,21.25 L32.25,21.25 L32.25,19 Z M19,12.25 L19,19 L13.25,19 L13.25,21 L19,21 L19,26.75 L21,26.75 L21,12.25 L19,12.25 Z M19,0 L21.25,0 L21.25,6.75 L19,6.75 L19,0 Z M19,33.25 L21.25,33.25 L21.25,40 L19,40 L19,33.25 Z M37.75,24.5 L37.75,37.75 L25.5,37.75 L25.5,40 L40,40 L40,24.5 L37.75,24.5 Z M33.25,24.5 L25.5,24.5 L25.5,32.25 L27.75,32.25 L27.75,26.75 L33.25,26.75 L33.25,24.5 Z" fill-rule="nonzero"></path>
                    </g>
                </g>
            </g>
        </g>
    </g>
</svg>